<svg xmlns="http://www.w3.org/2000/svg" xmlns:xlink="http://www.w3.org/1999/xlink" viewBox="0 0 400 300" width="406" height="306" class="illustration styles_illustrationTablet__1DWOa"><defs><linearGradient id="linear-gradient" x1="183.32" y1="180.48" x2="124.04" y2="223.25" gradientUnits="userSpaceOnUse"><stop offset="0" stop-color="#d4a397"></stop><stop offset="1" stop-color="#fff"></stop></linearGradient><linearGradient id="linear-gradient-2" x1="325.85" y1="187.85" x2="294.38" y2="210.55" xlink:href="#linear-gradient"></linearGradient><linearGradient id="linear-gradient-3" x1="222.22" y1="242.74" x2="190.75" y2="265.44" xlink:href="#linear-gradient"></linearGradient></defs><title>PP</title><g style="isolation: isolate;"><g id="Layer_2" data-name="Layer 2"><path d="M194.28,289.32,14.56,183.1c-5.72-3.21-10.63-8.49-5.05-11.94l180.37-104c2.71-1.68,6.82-2.78,9.57-1.18L388.11,175.52c5.72,3.32,6.75,12.6,1,15.93L218,289.15A23.9,23.9,0,0,1,194.28,289.32Z" fill="#17619e"></path><polyline points="218.55 179.55 128.77 231.18 98.61 217.11 194.12 170.34" fill="url(#linear-gradient)" style="mix-blend-mode: multiply;"></polyline><polyline points="346.54 190.12 298.59 217.7 278.89 204.53 322.11 180.91" fill="url(#linear-gradient-2)" style="mix-blend-mode: multiply;"></polyline><polyline points="242.92 245.01 194.96 272.59 175.26 259.42 230.44 232.19" fill="url(#linear-gradient-3)" style="mix-blend-mode: multiply;"></polyline><polygon points="150.9 63.77 225.46 21.01 225.46 174.01 150.9 217.11 150.9 63.77" fill="#68e1fd"></polygon><path d="M333.06,161c-6.54-.57-13.43-2.55-18.27-7v19.4a20.13,20.13,0,0,0,20.13,20.13h0a20.13,20.13,0,0,0,20.13-20.13V153.67C348.19,156.47,340.39,161.66,333.06,161Z" fill="#68e1fd"></path><ellipse cx="334.92" cy="153.87" rx="20.13" ry="10.67" fill="#5ed18d"></ellipse><path d="M334.92,155.68s-13.69-2-17.31-24.16C317.61,131.53,329.29,138,334.92,155.68Z" fill="#5ed18d"></path><path d="M336.94,152.86s-15.7-28.18,0-47.11A79,79,0,0,1,336.94,152.86Z" fill="#5ed18d"></path><path d="M334.92,135.15s-13.69-2-17.31-24.16C317.61,111,329.29,117.43,334.92,135.15Z" fill="#5ed18d"></path><path d="M336.59,144.17s-3.43-13.4,15.6-25.3C352.19,118.88,350.75,132.13,336.59,144.17Z" fill="#5ed18d"></path><ellipse cx="334.92" cy="153.87" rx="20.13" ry="10.67" fill="#146666"></ellipse><path d="M334.92,155.68s-13.69-2-17.31-24.16C317.61,131.53,329.29,138,334.92,155.68Z" fill="#5ed18d"></path><path d="M336.94,152.86s-15.7-28.18,0-47.11A79,79,0,0,1,336.94,152.86Z" fill="#5ed18d"></path><path d="M334.92,135.15s-13.69-2-17.31-24.16C317.61,111,329.29,117.43,334.92,135.15Z" fill="#5ed18d"></path><path d="M336.59,144.17s-3.43-13.4,15.6-25.3C352.19,118.88,350.75,132.13,336.59,144.17Z" fill="#5ed18d"></path><polygon points="156.87 103.25 156.87 150.78 219.49 114.76 219.49 67.21 156.87 103.25" fill="#fff"></polygon><path d="M156.87,150.78l15-33.18a6.8,6.8,0,0,1,9-3.41l7.36,3.27,14.36-24.18a4.69,4.69,0,0,1,6.85-1.35l10.11,7.61v15.22Z" fill="#27d9d3"></path><ellipse cx="166.79" cy="77.83" rx="11.71" ry="7.91" transform="translate(44.1 215.04) rotate(-73.21)" fill="#fff"></ellipse><ellipse cx="166.62" cy="74.92" rx="5.55" ry="3.75" transform="translate(46.78 212.8) rotate(-73.21)" fill="#0071bc"></ellipse><path d="M172.82,83.76c.11-.18-1.18-5.74-4.62-5.47-5.73.45-7.28,5.87-7,9.49a5.89,5.89,0,0,0,6.48.91A11.17,11.17,0,0,0,172.82,83.76Z" fill="#0071bc"></path><line x1="178.54" y1="67.75" x2="202.38" y2="54.03" fill="#817ce5"></line><path d="M179.3,69l23.84-13.72a1.5,1.5,0,0,0-1.51-2.59L177.78,66.45A1.5,1.5,0,0,0,179.3,69Z" fill="#fff"></path><line x1="179.16" y1="75.06" x2="207.22" y2="58.92" fill="#817ce5"></line><path d="M179.92,76.36,208,60.21a1.5,1.5,0,0,0-1.51-2.59L178.41,73.77a1.5,1.5,0,0,0,1.51,2.59Z" fill="#fff"></path><path d="M211.2,35.74l23.52-13.57a3.56,3.56,0,0,1,5.34,3.08V40.52a3.56,3.56,0,0,1-1.75,3.07L214.79,57.44a3.56,3.56,0,0,1-5.37-3.07V38.83A3.56,3.56,0,0,1,211.2,35.74Z" fill="#f24c4c"></path><polyline points="222.96 51.83 227.21 56.95 230.69 47.16" fill="#f24c4c"></polyline><path d="M224.84,38.68S222,34,219.12,37.55c-1.63,2,1.33,8.17,5.57,8.81,3.84.58,9.24-12.58,3.86-12.72C225.06,33.54,224.84,38.68,224.84,38.68Z" fill="#fff"></path><path d="M164,157.05s-2.88-4.66-5.72-1.13c-1.63,2,1.33,8.17,5.57,8.81,3.84.58,9.24-12.58,3.86-12.72C164.21,151.91,164,157.05,164,157.05Z" fill="#f24c4c"></path><ellipse cx="178.14" cy="150.93" rx="5.15" ry="5.54" transform="translate(8.29 311.13) rotate(-83.6)" fill="#f24c4c"></ellipse><path d="M178.94,154.27c-.22.34-4,4.07-4,4.11V152" fill="#f24c4c"></path><line x1="159.17" y1="176.47" x2="207.77" y2="149.35" fill="#817ce5"></line><path d="M159.93,177.77l48.6-27.12c1.69-.94.18-3.53-1.51-2.59l-48.6,27.12c-1.69.94-.18,3.53,1.51,2.59Z" fill="#fff"></path><line x1="159.17" y1="183.9" x2="207.77" y2="156.78" fill="#817ce5"></line><path d="M159.93,185.2l48.6-27.12c1.69-.94.18-3.53-1.51-2.59l-48.6,27.12c-1.69.94-.18,3.53,1.51,2.59Z" fill="#fff"></path><line x1="158.54" y1="191.87" x2="207.14" y2="164.75" fill="#817ce5"></line><path d="M159.29,193.17,207.9,166c1.69-.94.18-3.53-1.51-2.59l-48.6,27.12c-1.69.94-.18,3.53,1.51,2.59Z" fill="#fff"></path><line x1="158.54" y1="199.3" x2="207.14" y2="172.18" fill="#817ce5"></line><path d="M159.29,200.6l48.6-27.12c1.69-.94.18-3.53-1.51-2.59L157.78,198c-1.69.94-.18,3.53,1.51,2.59Z" fill="#fff"></path><path d="M196.19,128.5l29.35-16.94a4.44,4.44,0,0,1,6.66,3.85v19.05a4.44,4.44,0,0,1-2.19,3.83l-29.35,17.29a4.44,4.44,0,0,1-6.7-3.83v-19.4A4.44,4.44,0,0,1,196.19,128.5Z" fill="#f24c4c"></path><polyline points="210.86 148.58 216.17 154.96 220.51 142.75" fill="#f24c4c"></polyline><path d="M203.85,139.23a1.91,1.91,0,0,1-.52-1.29,2.23,2.23,0,0,1,1-1.85,1.69,1.69,0,0,1,.39-2,13.15,13.15,0,0,1,4.43-2.38,1.34,1.34,0,0,0,.32-.27,19.69,19.69,0,0,1-.69-5.89,2.56,2.56,0,0,1,2.63-2.72s.51,4.38,1.4,5.74a2.41,2.41,0,0,0,2.87,1.21c.59-.24,5.15-2.34,7-3.19v8.67l-8,4.49c-.08,1.49-4.13,2.91-6.5,3.53a1.19,1.19,0,0,1-.57.38,4.17,4.17,0,0,1-2.54.12,1.52,1.52,0,0,1-1-1.4,1.59,1.59,0,0,1-1-1.06A2.06,2.06,0,0,1,203.85,139.23Z" fill="#fff"></path><polygon points="223.09 125.69 218.42 127.83 218.42 138.78 223.09 136.17 223.09 125.69" fill="#e2d1cf"></polygon><path d="M236.95,242.1l3.8-1.05-.6-4.63S236,237.1,236.95,242.1Z" fill="#42210b"></path><path d="M242.13,228.62s1.34,15.66,1,15.85-4,.5-4,.22-.22-7.13-.22-7.13-1.83,3-1.92,4.54c0,0-4.37-2.49-5.18-4.49s1.87-10.36,2.89-10.81" fill="#7f252b"></path><path d="M227.53,250.31l4.31-4.57L229,242.19S226.41,248,227.53,250.31Z" fill="#42210b"></path><path d="M233.93,232.19l2,18.8a22.3,22.3,0,0,1-3.84,1,12.19,12.19,0,0,1-2.33-1.1l-.72-6.27s-1.86,1.86-1.53,5.68c0-.26-3-1.24-3.35-1.42a22.25,22.25,0,0,1-3.44-1.87c-1.14-.79-5.39-4.3-3.11-5.69,1.94-1.19,8.23-.62,8.23-.62l.09-7.76" fill="#7f252b"></path><path d="M241.45,164.86a.45.45,0,0,1,.45-.55,14.45,14.45,0,0,0-2.11-4.61l-18.2-2.14s-3.65,13-5.06,35.41c-1.09,17.37,7.43,43.2,7.43,43.2s8.82,2.24,13.06-2.12l-.17-3.74a44.5,44.5,0,0,0,6.56-.54C245.6,208.2,243.94,186.32,241.45,164.86Z" fill="#fbb03b"></path><path d="M237.53,233l-2.28-16.1c-.73-5.13-1.85-10.4-1.87-15.61s1.76-9.86,2.62-14.82a58,58,0,0,0,.63-14.54c-.09-1.13-1.71-1.14-1.62,0a56.41,56.41,0,0,1-1,16.23c-1,4.77-2.43,9.29-2.23,14.25s1.2,10,1.9,15l2.28,16.1C236.13,234.64,237.69,234.16,237.53,233Z" fill="#42210b"></path><path d="M211.67,152.49c-.8-.25-1.6-.48-2.41-.7l-.07,0a51.09,51.09,0,0,0-7-2l-4.56-3.14h0a.76.76,0,0,0-1.23.45c-.26.76,1.34,2.4,1.87,2.85l.2.17c.1.09.52.53.65.51a10.88,10.88,0,0,0-4.46,1.26.82.82,0,0,0,0,1.42,2.34,2.34,0,0,0,.9.21l-.16.06c-1,.42-1.49,1.24-.59,2.13a.81.81,0,0,0,.27.18.68.68,0,0,0,.68.17l0,.15a1.07,1.07,0,0,0,.08,1,1.21,1.21,0,0,0,1.69.28l.38-.14c.41,1,1.55,1,2.54.66s2.18-.92,3.27-1.32l3.27,1.27c.88.34,2.45,1.37,3.41,1s.57-1.93-.42-1.58c.21-.07-.22-.11-.35-.16l-.9-.35a7.23,7.23,0,0,0,2.58.51.83.83,0,0,0,.57-1.4,10.85,10.85,0,0,0-1.51-1.22.89.89,0,0,0,0-.56l.11,0a.84.84,0,0,0,.56-.11l.18.05C212.26,154.38,212.67,152.8,211.67,152.49Z" fill="#fe6162"></path><path d="M234,131.08s-10.13,0-13.63,6.37c-2.94,5.35-2.39,14.28-2.39,14.28l-11.67-.92a4.8,4.8,0,0,0-2.52,5.6c.45,2.29,12,3.35,18.41,4.93s17.92,2,19.74-1.81,1.59-19.38-.53-23.85S234,131.08,234,131.08Z" fill="#5ed18d"></path><path d="M224.68,121.29s-.53,7.7,1.82,9.48,6.23-1.16,6.23-1.16" fill="#fe6162"></path><path d="M226.6,117.43a7.47,7.47,0,0,0-2.33,3.07c-1.94,4.85,3.28,10.87,7.93,11.8l2.42-.76s3.2-4.71,3.2-7.35a9.74,9.74,0,0,0-2.72-6.85C232.62,115,229.06,115.5,226.6,117.43Z" fill="#534741"></path><path d="M232.2,132.31s-8.72,25.13-2.15,29.29,19.4.37,16.89-5.86-12.32-24.19-12.32-24.19" fill="#534741"></path></g></g></svg>
